<?xml version="1.0" encoding="iso-8859-1"?>
<!-- Uploaded to: SVG Repo, www.svgrepo.com, Generator: SVG Repo Mixer Tools -->
<svg height="800px" width="800px" version="1.1" id="Layer_1" xmlns="http://www.w3.org/2000/svg" xmlns:xlink="http://www.w3.org/1999/xlink" 
	 viewBox="0 0 512.003 512.003" xml:space="preserve">
<path style="fill:#D3D7DF;" d="M50.896,371.338c-11.409,0-20.932-4.864-27.529-14.08c-30.652-42.786,14.942-180.779,15.411-182.161
	l0.341-0.887c4.156-9.779,10.138-14.754,17.749-14.754c11.281,0.009,16.725,10.18,23.62,23.066
	c11.486,21.47,23.492,40.73,44.083,40.73c67.473,0,82.406-11.597,85.692-16.58c0.819-1.246,3.302-5.009-1.417-16.009
	c-2.978-6.946-7.612-12.612-11.332-17.161c-5.129-6.263-10.428-12.74-7.953-21.299c0.845-2.927,3.396-8.218,10.982-10.752
	l1.971-0.657l2.884-0.128c8.951,0,15.172,6.391,28.817,20.403c11.708,12.015,27.742,28.476,50.321,45.815l20.352,14.609
	c7.134,4.719,15.155,9.515,24.533,14.686l23.296,11.691c29.175,13.431,59.281,22.997,92.032,29.244
	c13.466,2.569,54.434,10.368,54.434,48.597c0,26.863-21.06,45.628-51.226,45.628H50.896z"/>
<g>
	<path style="fill:#573A32;" d="M447.149,264.518c-116.275-22.144-175.462-83.149-203.895-112.469
		c-14.635-15.087-23.475-24.201-37.854-24.201c-2.756,0-6.289,0.572-8.9,1.442c-9.6,3.2-16.614,10.249-19.251,19.345
		c-4.343,15.027,4.497,25.83,10.342,32.981c3.379,4.13,7.202,8.806,9.472,14.089c0.896,2.099,1.34,3.575,1.562,4.54
		c-3.959,2.654-19.959,10.189-74.061,10.189c-13.508,0-22.835-15.377-32.777-33.963c-7.484-13.978-15.957-29.824-34.901-29.841
		c-0.009,0-0.009,0-0.017,0c-7.458,0-21.205,2.935-29.551,22.554c-0.247,0.589-0.478,1.178-0.683,1.783
		c-1.997,5.905-48.632,144.981-13.688,193.749c8.977,12.535,22.46,19.439,37.948,19.439H447.96
		c37.111,0,64.043-24.576,64.043-58.436C512.003,303.43,500.756,274.732,447.149,264.518z M447.96,358.529
		c-25.617,0-371.447,0-397.065,0c-51.234,0-11.264-146.159,0-179.319c2.074-4.89,4.011-6.963,5.973-6.963
		c10.914,0.009,22.946,63.795,67.695,63.795c96.06,0,108.058-22.417,96.043-50.432c-8.371-19.533-25.617-28.817-16.009-32.026
		c0.256-0.085,0.521-0.128,0.802-0.128c7.748,0,28.339,30.532,71.347,63.565l-17.161,17.161c-5.001,5.001-5.001,13.107,0,18.108
		c2.5,2.5,5.777,3.755,9.054,3.755c3.277,0,6.554-1.254,9.054-3.755l20.139-20.139c7.817,5.163,16.384,10.24,25.412,15.215
		l-25.242,25.242c-5.001,5.001-5.001,13.107,0,18.108c2.5,2.5,5.777,3.755,9.054,3.755s6.554-1.254,9.054-3.755l31.241-31.241
		c26.871,12.373,58.121,23.168,94.993,30.191c26.701,5.086,44.032,14.805,44.032,36.028
		C486.377,346.916,469.183,358.529,447.96,358.529z"/>
	<path style="fill:#573A32;" d="M261.567,321.461l-51.234-25.617c-1.775-0.887-3.738-1.348-5.726-1.348H50.896
		c-7.083,0-12.809,5.726-12.809,12.809c0,7.083,5.726,12.809,12.809,12.809h150.673l48.529,24.269
		c1.835,0.913,3.789,1.348,5.717,1.348c4.702,0,9.216-2.586,11.469-7.083C270.458,332.315,267.89,324.618,261.567,321.461z"/>
</g>
</svg>